<?xml version="1.0" encoding="UTF-8"?><svg id="Layer_2" xmlns="http://www.w3.org/2000/svg" viewBox="0 0 185.74666 192.18231"><defs><style>.cls-1{stroke-width:0px;}</style></defs><g id="Layer_1-2"><path class="cls-1" d="m0,192.18132v-93.79688l63.38623-.01366,11.6583,16.36424H19.83105v22.34961h51.96201v16.35059H19.83105v22.39551h55.39707l-11.84189,16.35059H0Z"/><path class="cls-1" d="m185.74666,0v60.90991c0,6.84009-1.62988,12.83008-4.87988,17.96008s-7.79004,9.12-13.62012,11.96997c-5.83984,2.85999-12.62988,4.29004-20.37988,4.29004-4.38989,0-8.45996-.47009-12.22998-1.38-2.92017-.69995-5.65991-1.66003-8.19995-2.91003-5.83008-2.84998-10.37012-6.83997-13.6001-11.96997-2.51001-3.97009-4.03003-8.46008-4.6001-13.45007-.15991-1.45996-.25977-2.95996-.25977-4.51001V0l19.81617,20.01722.01366,39.20275c0,2.21997.31006,4.29004.92017,6.19995.35986,1.17004.84985,2.28003,1.43994,3.33008,1.1499,2.02002,2.63989,3.71997,4.46997,5.10999.68994.52002,1.40991,1,2.19995,1.44006,2.85986,1.57996,6.20996,2.37988,10.03003,2.37988,3.84009,0,7.18994-.79993,10.05005-2.37988,2.84985-1.59009,5.06982-3.78003,6.63989-6.55005,1.57007-2.78003,2.36011-5.95996,2.36011-9.53003l-.01366-39.20275L185.74666,0Z"/><path class="cls-1" d="m156.06917,120.09399c-3.67969-6.99121-8.92383-12.35742-15.73145-16.09863-2.62549-1.44165-5.45044-2.59888-8.46582-3.48486l.03491.00244c-.30688-.07263-.60059-.15491-.90161-.23169-.44482-.12146-.8877-.24487-1.34058-.35449-9.6853-2.74219-16.3855-7.71484-21.41284-14.01587-1.84961-2.31812-6.22363-10.59583-6.57788-17.45752V.00146h-24.45654l-25.83057,63.02002h-1.09912L24.45662.00146H.00008v93.79688l19.22217-19.31299.01367-41.96631h.77832l24.27344,60.82129h13.09863l24.27393-60.59229h.77832v159.43427h19.23535v-.00049h14.02319c9.52637,0,17.7168-1.87793,24.57129-5.63379,6.85449-3.75488,12.12109-9.14355,15.80078-16.16595,3.67871-7.02246,5.51855-15.41895,5.51855-25.19043,0-9.73926-1.83984-18.10547-5.51855-25.09766Zm-17.31152,42.2041c-2.03125,4.41211-5.05371,7.66406-9.06836,9.75488-4.01562,2.0918-8.9541,3.1377-14.81641,3.1377h-13.19897v-59.81348h13.24487c5.8623,0,10.79297,1.03809,14.79297,3.11426s7.01465,5.3125,9.0459,9.70898c2.0293,4.39648,3.04492,10.06055,3.04492,16.99121,0,6.99316-1.01562,12.69434-3.04492,17.10645Z"/></g></svg>